<svg viewBox="0 0 950 800" xmlns="http://www.w3.org/2000/svg">
  <g>
    <circle fill="#3649A6" cx="165" cy="299" r="209"/>
    <path d="M101 436c30-8 73-37 107-44 57-12 75 41 75 113l-17 5c0-57-12-99-49-90-30 8-73 27-109 41-13-4-26-9-38-14l343-283-28 143-15-20c-49 49-83 106-108 168l-15-6c22-54 51-107 95-144l-5 27zm370-142v243h176v-41h-124v-64h108v-39h-108v-59h120v-40h-172zm254 0v243h165v-42h-110v-201h-55zm174 0h53l-113 113 122 130h-66l-88-105v105h-55v-243h55v104zm-261 39 22-17 23 17v-26h-45v26zm23-3-23 18v13l23-18 22 18v-13l-22-18zm23 24v148h-45v71h129v-41h-71v-178zm-233 153c-16-86-57-156-118-199l23-131-312 259c12 5 23 10 35 15l109-41c41-15 72 16 63 90l17-5c7-63-18-106-72-92l-107 36c41 14 118 33 163 20l13-3zm44 90v41h-47v164h-55V538h-47v-41h149zm282-41c-51 0-93 41-93 92 0 52 42 93 93 93s93-41 93-93c0-51-41-92-93-92zm0 156c-36 0-64-29-64-64 0-36 28-65 64-65s64 29 64 65c0 35-28 64-64 64zm-520-156v243H102v-67H39v67H-15v-243h54v110h63V538zm682 0v41h-71v61h55v41h-129v-41h55v-164h45v163zm-203 0v203h129v-41h-74v-162h-55zm-508-99c-6 97 63 178 160 198l-12 42C40 669-19 587-13 484c0-99 73-182 173-198l-12-42zm595-203c30-56 67-102 127-102v45c-38 0-65 38-83 69l-19-12zm128-125c-81 0-142 89-184 161l-19-11C405 67 471-10 562-10c59 0 110 52 128 97zm-146 38C343 124 299 192 289 251l-21-7C280 180 315 87 459 57zm69 45c43-84 103-176 207-176v44c-86 0-142 82-180 152l-19-12zm229-157c-95 0-165 104-206 181l-19-11C571 44 678-33 687-33c38 0 71 22 97 53zm-19 135C765 80 697 9 602 9c-98 0-177 105-218 180l-21-8C401 73 492-34 602-34c108 0 193 109 223 164zm-289 236c-39 0-71-32-71-72 0-39 32-71 71-71s72 32 72 71c0 40-33 72-72 72zm0-122c-28 0-51 23-51 50 0 28 23 51 51 51 27 0 50-23 50-51 0-27-23-50-50-50z" fill="#3649A6"/>
    <circle cx="753" cy="599" r="58" fill="#3649A6"/>
    <path d="M754 536c6 0 11 5 11 12v29a40 40 0 0 1-23 72 40 40 0 0 1-23-72v-29c0-7 5-12 11-12z" fill="#F05133"/>
    <circle cx="753" cy="599" r="32" fill="#fff"/>
    <circle cx="753" cy="599" r="25" fill="#F05133"/>
  </g>
  <text x="10" y="780" font-family="Arial" font-size="60" fill="#3649A6" letter-spacing="20">A UNIT OF GLOBE AUDIO</text>
  <text x="270" y="490" font-family="Arial" font-size="250" fill="#3649A6" letter-spacing="40">ELK</text>
  <text x="10" y="650" font-family="Arial" font-size="250" fill="#3649A6" letter-spacing="40">AUDIOS</text>
</svg>